<svg width="220" height="220" viewBox="0 0 220 220" fill="none" xmlns="http://www.w3.org/2000/svg">
<rect width="220" height="220" rx="40" fill="white"/>
<path d="M101.01 161.946C100.346 161.351 93.7412 156.146 93.7412 156.146C88.99 153.093 74.6388 153.824 74.6388 153.824C63.5705 154.585 60.0729 147.907 60.0729 147.907C59.5851 147.078 53.9559 133.649 51.8242 126.444C49.4095 118.742 40.4534 116.312 40.4534 116.312C29.7559 113.722 31.1998 97.2342 31.1998 97.2342C31.1998 97.2342 32.9022 80.3708 48.2144 85.9415C48.2144 85.9415 61.6485 90.6586 64.6095 104.971C64.6095 104.971 66.751 124.893 74.6632 130.029C74.6632 130.029 85.1559 137.298 108.078 137.454C108.078 137.454 144.097 137.146 146.907 123.688C146.907 123.688 150.824 92.9806 164.853 86.2537C164.853 86.2537 178.79 79.7903 184.917 90.1172C187.853 95.0635 187.722 102.917 185.556 106.444C183.39 109.971 176.917 115.181 176.917 115.181C176.917 115.181 166.014 123.498 162.531 136.507C162.39 137.312 162.21 138.112 161.961 138.888C160.795 142.478 157.049 151.727 149.073 152.927L130.371 154.942C124.312 155.595 118.59 158.02 113.956 161.976C111.414 164.146 108.453 167.044 105.092 170.907C99.7656 177.039 92.7559 181.478 84.9705 183.785C82.9754 184.376 80.7412 184.976 78.229 185.571C78.229 185.571 67.712 188.356 66.9363 193.151L66.7803 196.4" stroke="#7D287E" stroke-width="7" stroke-miterlimit="10"/>
<path d="M117.639 176.976C117.639 176.976 124.654 183.161 132.697 183.78C132.697 183.78 146.722 184.449 151.468 196.39" stroke="#7D287E" stroke-width="7" stroke-miterlimit="10"/>
<path d="M81.4386 120.41C81.4386 120.41 119.185 106.781 146.512 124.888" stroke="#7D287E" stroke-width="7" stroke-miterlimit="10"/>
<path d="M57.7217 71.8879C57.7217 71.8879 57.1022 22.8489 88.0437 23.0049H128.419" stroke="#7D287E" stroke-width="7" stroke-miterlimit="10"/>
<path d="M158.751 71.8879C158.751 71.8879 159.37 22.8489 128.429 23.0049H88.0533" stroke="#7D287E" stroke-width="7" stroke-miterlimit="10"/>
</svg>
